# Blender v2.93.6 OBJ File: ''
# www.blender.org
v -0.011789 -1.161743 -0.300877
v 0.248778 -1.161743 -0.150438
v 0.248778 -1.161743 0.150439
v -0.011789 -1.161743 0.300877
v -0.272356 -1.161743 0.150439
v -0.272356 -1.161743 -0.150438
v 0.408273 0.019717 0.292295
v 0.408273 0.537196 0.292295
v -0.387154 0.084814 0.316054
v -0.387154 0.472099 0.316054
v -0.541490 0.019717 0.156332
v -0.541490 0.537196 0.156332
v -0.542934 0.019717 -0.150831
v -0.542934 0.537196 -0.150831
v -0.390107 0.084814 -0.311997
v -0.390107 0.472098 -0.311997
v -0.125314 0.019717 -0.572396
v -0.125314 0.537196 -0.572396
v 0.181850 0.019717 -0.573840
v 0.181850 0.537196 -0.573840
v 0.405578 0.019717 -0.280879
v 0.405578 0.537196 -0.280880
v 0.113390 1.408250 -0.138391
v 0.246559 -0.570210 0.199157
v -0.293288 -0.570210 0.286984
v -0.421249 -0.557032 0.112253
v -0.422279 -0.557032 -0.106992
v -0.295967 -0.570210 -0.282917
v -0.115806 -0.570210 -0.388066
v 0.092792 -0.570210 -0.389046
v 0.244729 -0.570210 -0.190093
v 0.317177 -1.192757 0.239482
v 0.285514 -1.204545 0.963735
v -0.487201 -1.208630 0.134806
v -0.488442 -1.208630 -0.129275
v -0.115496 -1.192757 -0.453920
v 0.128298 -1.192757 -0.455066
v 0.314973 -1.192757 -0.229372
v 0.285580 -0.171955 0.977663
v 0.072626 -0.682120 0.703446
v 0.238352 -0.682120 0.702667
v 0.075044 -1.092388 0.694248
v 0.235847 -1.092388 0.693492
v -0.576052 -0.647320 0.097880
v -0.576943 -0.647320 -0.091516
v -0.576052 -1.116186 0.097881
v -0.576943 -1.116186 -0.091516
v -0.864672 -0.133267 0.004537
v -0.864672 -1.192757 0.004537
v -0.125314 0.019717 0.572509
v -0.125314 0.537196 0.572509
v 0.181850 0.019717 0.573953
v 0.181850 0.537196 0.573953
v -0.125012 1.408250 -0.000000
v 0.113390 1.408250 0.138391
v -0.115806 -0.570210 0.388736
v 0.092792 -0.570210 0.389717
v 0.285514 -1.204545 -0.963735
v -0.189105 -1.192757 -0.335723
v -0.192332 -1.192757 0.350726
v -0.115496 -1.192757 0.453921
v 0.128298 -1.192757 0.455067
v 0.285580 -0.171956 -0.977663
v 0.072626 -0.682120 -0.703446
v 0.238352 -0.682120 -0.702667
v 0.075044 -1.092388 -0.694247
v 0.235847 -1.092388 -0.693491
v -0.272356 -1.197140 -0.150438
v -0.272356 -1.197064 0.150439
v 0.248778 -1.192757 -0.150438
v 0.248778 -1.192757 0.150439
v -0.011789 -1.192757 -0.300877
v -0.011789 -1.192757 0.300877
vt 0.631273 0.846366
vt 0.563311 0.886402
vt 0.495348 0.846450
vt 0.073360 0.288189
vt 0.000000 0.157878
vt 0.073360 0.151351
vt 0.610616 0.288953
vt 0.538184 0.174847
vt 0.610616 0.151868
vt 0.495348 0.298272
vt 0.495348 0.161186
vt 0.732449 0.199043
vt 0.812540 0.332818
vt 0.732410 0.332818
vt 0.495348 0.298366
vt 0.452801 0.174909
vt 0.495348 0.161281
vt 0.379407 0.288933
vt 0.379407 0.151849
vt 0.299425 0.152299
vt 0.299425 0.294652
vt 0.222886 0.151396
vt 0.299425 0.157813
vt 0.222886 0.288234
vt 0.185865 0.526981
vt 0.325778 0.000306
vt 0.380094 0.000000
vt 0.299425 0.289383
vt 0.324716 0.530448
vt 0.389148 0.533385
vt 0.452801 0.277504
vt 0.812580 0.199043
vt 0.772917 0.000000
vt 0.538184 0.277442
vt 0.601175 0.533398
vt 0.000000 0.294717
vt 0.113660 0.526996
vt 0.690607 0.911840
vt 0.752913 0.874636
vt 0.752913 0.947466
vt 0.308974 0.599346
vt 0.469601 0.619717
vt 0.306784 0.649003
vt 0.428795 0.002233
vt 0.846727 0.500829
vt 0.800950 0.489458
vt 0.743755 0.489458
vt 0.698055 0.500829
vt 0.690607 0.325610
vt 0.048107 0.004433
vt 0.097740 0.000000
vt 0.562138 0.002163
vt 0.610035 0.000000
vt 0.199285 0.000031
vt 0.251264 0.004389
vt 0.017353 0.751457
vt 0.048387 0.832635
vt 0.000000 0.772370
vt 0.660742 0.648158
vt 0.498153 0.702213
vt 0.497654 0.620279
vt 0.858388 0.791325
vt 0.690607 0.751445
vt 0.854051 0.740717
vt 0.308674 0.543964
vt 0.472262 0.598112
vt 0.469341 0.702777
vt 0.322759 0.726927
vt 0.299425 0.685606
vt 0.631273 0.899377
vt 0.678487 0.968198
vt 0.640782 0.988951
vt 0.858388 0.584181
vt 0.690669 0.626732
vt 0.695934 0.566603
vt 0.658621 0.599320
vt 0.495348 0.598133
vt 0.854103 0.637179
vt 0.931970 0.442540
vt 0.854449 0.330084
vt 0.931970 0.280667
vt 0.049502 0.590550
vt 0.062698 0.526996
vt 0.113054 0.591159
vt 0.695934 0.808691
vt 0.825260 0.874636
vt 0.718931 0.872171
vt 0.835739 0.964886
vt 0.802322 0.939079
vt 0.835739 0.874636
vt 0.859340 0.635371
vt 0.929319 0.773904
vt 0.858388 0.743811
vt 0.209716 0.822949
vt 0.250183 0.807666
vt 0.250183 0.958837
vt 0.371257 0.874281
vt 0.441362 0.726927
vt 0.441362 0.993888
vt 0.209716 0.664966
vt 0.286408 0.807666
vt 0.209716 0.789173
vt 0.567380 0.886403
vt 0.538495 0.946735
vt 0.538495 0.896357
vt 0.644720 0.726424
vt 0.522904 0.726424
vt 0.538495 0.944721
vt 0.495348 0.890416
vt 0.538495 0.886403
vt 0.679954 0.872799
vt 0.631273 0.864187
vt 0.679954 0.726424
vt 0.854449 0.142645
vt 0.930995 0.000000
vt 0.930995 0.280667
vt 0.802322 0.951998
vt 0.752913 0.951998
vt 0.777618 0.874636
vt 0.690607 0.152302
vt 0.664358 0.000295
vt 0.690607 0.289388
vt 0.665542 0.530452
vt 0.658910 0.543931
vt 0.250183 0.897353
vt 0.297418 0.828386
vt 0.297418 0.923892
vt 0.858388 0.886205
vt 0.935682 0.773904
vt 0.935682 0.935823
vt 0.060996 0.896321
vt 0.111942 0.832635
vt 0.825260 0.500829
vt 0.474777 0.878137
vt 0.474777 0.968379
vt 0.441362 0.903946
vt 0.370306 0.726927
vt 0.300375 0.865490
vt 0.299425 0.757051
vt 0.441362 0.862819
vt 0.481822 0.726927
vt 0.481822 0.878137
vt 0.930275 0.620312
vt 1.000000 0.767784
vt 0.929319 0.726544
vt 0.472262 0.605123
vt 0.484446 0.533502
vt 0.480319 0.605239
vt 0.153616 0.672078
vt 0.132958 0.618704
vt 0.209716 0.676505
vt 0.668073 0.613435
vt 0.675936 0.533398
vt 0.675936 0.613429
vt 0.290541 0.665462
vt 0.294465 0.593680
vt 0.298598 0.665346
vt 0.289403 0.527129
vt 0.298598 0.526996
vt 0.475271 0.671700
vt 0.484446 0.671833
vt 0.493626 0.533387
vt 0.484466 0.613416
vt 0.484446 0.533385
vt 0.495348 0.766461
vt 0.563311 0.726424
vt 0.631273 0.766377
vt 0.854449 0.325610
vt 0.000000 0.647657
vt 0.017722 0.671427
vt 0.085832 0.631738
vt 0.085094 0.791798
vt 0.668073 0.685088
vt 0.471912 0.533385
vt 0.444574 0.726927
vt 0.678487 0.872799
vt 0.867990 0.435424
vt 0.020778 0.526996
vt 0.929319 0.500829
vt 0.370306 0.768045
vt 0.286408 0.526996
vt 0.567380 0.956647
vt 0.495348 0.940795
vt 0.854449 0.018439
vt 0.495687 0.533398
vt 0.259697 0.807666
vt 0.872044 0.780885
vt 0.019078 0.895919
vt 0.718931 0.503245
vt 0.370306 1.000000
vt 1.000000 0.500829
vt 0.476390 0.533385
vt 0.131275 0.801288
vt 0.153248 0.752108
vt 0.209716 0.746750
vt 0.668073 0.533405
vt 0.286408 0.593796
vt 0.493626 0.613418
vn 0.0000 -1.0000 -0.0000
vn 0.7794 0.0000 0.6265
vn -0.6997 0.0000 0.7144
vn -0.7191 0.0000 0.6949
vn -1.0000 0.0000 0.0047
vn -0.7256 -0.0000 -0.6881
vn -0.7012 -0.0000 -0.7130
vn -0.0047 -0.0000 -1.0000
vn 0.7948 -0.0000 -0.6069
vn 0.7464 0.3436 -0.5700
vn 1.0000 -0.0000 -0.0047
vn -0.0045 -0.2983 -0.9545
vn -0.0042 0.4469 -0.8946
vn -0.6531 0.4160 -0.6327
vn -0.4970 0.4767 -0.7251
vn -0.4364 0.4942 -0.7518
vn -0.5786 0.4006 -0.7105
vn -0.9019 0.4320 0.0042
vn -0.5713 0.4016 0.7157
vn 0.7299 0.3508 0.5867
vn -0.6526 0.4163 0.6331
vn -0.4962 0.4770 0.7255
vn -0.6906 0.3974 0.6043
vn 0.9476 0.3196 -0.0036
vn 0.9479 0.3187 -0.0015
vn 0.9474 0.3199 -0.0045
vn 0.0000 1.0000 0.0000
vn -0.5580 -0.0041 -0.8298
vn -0.7066 0.0156 -0.7075
vn -0.6436 0.0268 -0.7649
vn -0.6712 -0.1609 -0.7236
vn -0.5672 -0.2247 -0.7923
vn -0.7114 -0.1329 -0.6901
vn -0.7154 -0.1465 -0.6832
vn -0.7782 -0.1919 -0.5980
vn -0.8015 -0.2102 -0.5598
vn -0.9789 -0.2044 0.0046
vn -0.7092 -0.1456 0.6898
vn -0.7727 -0.1910 0.6054
vn -0.6860 -0.1301 0.7159
vn 0.7435 -0.2988 0.5982
vn 0.7431 -0.2985 0.5989
vn 0.7428 -0.2983 0.5994
vn -0.6699 -0.1601 0.7250
vn -0.5617 -0.2253 0.7960
vn -0.4792 -0.2681 0.8358
vn 0.9646 -0.2637 -0.0045
vn 0.7591 -0.2962 -0.5797
vn -0.7437 0.0673 0.6651
vn -0.6413 0.0119 0.7672
vn -0.5903 -0.0131 0.8071
vn 0.7654 0.1235 0.6316
vn 0.7534 0.1153 0.6473
vn 0.7718 0.1279 0.6228
vn -0.0047 0.1052 -0.9944
vn -0.3179 0.0136 -0.9480
vn -0.1483 0.0431 -0.9880
vn -0.1264 0.0467 -0.9909
vn -0.0008 0.9419 0.3359
vn 0.0007 0.9419 0.3360
vn 0.0016 0.9418 0.3361
vn 0.7823 0.1225 -0.6108
vn 0.7714 0.1148 -0.6259
vn 0.7658 0.1109 -0.6334
vn -0.6253 0.0007 -0.7804
vn -0.8045 0.1017 -0.5852
vn -0.5403 0.0151 0.8413
vn -0.7545 0.0528 0.6541
vn -0.8005 0.0620 0.5961
vn 0.9937 0.1124 -0.0047
vn -0.8140 0.0162 0.5806
vn -0.8300 0.0337 0.5568
vn -0.8480 0.0548 0.5272
vn -0.0007 -0.9222 0.3868
vn 0.0004 -0.9221 0.3870
vn -0.0018 -0.9222 0.3866
vn 0.9095 0.0055 -0.4157
vn 0.9086 0.0067 -0.4177
vn 0.9110 0.0037 -0.4125
vn -0.0018 -0.9237 -0.3830
vn 0.9846 0.0015 -0.1749
vn 0.9840 -0.0002 -0.1782
vn 0.9834 -0.0019 -0.1815
vn -0.0041 0.4748 -0.8801
vn -0.7844 -0.0106 0.6202
vn -0.7873 -0.0138 0.6164
vn -0.7822 -0.0084 0.6230
vn -0.3077 0.0000 0.9515
vn -0.7217 -0.6922 0.0034
vn -0.3095 0.0135 0.9508
vn -0.1409 0.0428 0.9891
vn -0.3838 0.0000 0.9234
vn -0.5040 0.8637 0.0024
vn 0.8723 0.4890 -0.0041
vn -0.3167 -0.0000 -0.9485
vn 0.2568 -0.9665 -0.0012
vn -0.0047 0.0000 1.0000
vn -0.0045 -0.2975 0.9547
vn -0.0042 0.4470 0.8945
vn -0.0047 0.1041 0.9946
vn -0.0008 0.9421 -0.3353
vn 0.0007 0.9421 -0.3354
vn -0.0016 0.9421 -0.3352
vn -0.8303 0.0340 -0.5563
vn -0.8143 0.0165 -0.5802
vn -0.8484 0.0553 -0.5265
vn 0.0004 -0.9221 -0.3870
vn -0.0007 -0.9222 -0.3868
vn -0.0018 -0.9222 -0.3866
vn 0.9096 0.0054 0.4154
vn 0.9088 0.0064 0.4172
vn 0.9080 0.0074 0.4188
vn -0.0018 -0.9237 0.3830
vn 0.9840 -0.0002 0.1782
vn 0.9846 0.0015 0.1749
vn 0.9834 -0.0019 0.1815
vn -0.0041 0.4748 0.8801
vn -0.7844 -0.0106 -0.6202
vn -0.7873 -0.0138 -0.6164
vn -0.7917 -0.0184 -0.6107
vn -0.5000 -0.0000 -0.8660
vn 0.0460 -0.9989 0.0031
vn 0.0113 -0.9999 0.0095
vn 0.0538 -0.9986 -0.0002
vn -1.0000 0.0000 -0.0000
vn -0.5000 0.0000 0.8660
vn 0.5000 0.0000 0.8660
vn 0.5000 -0.0000 -0.8660
vn 1.0000 0.0000 0.0000
vn -0.6913 0.3970 -0.6037
vn -0.4364 0.4943 0.7518
vn 0.9481 0.3180 0.0000
vn -0.8475 0.0554 -0.5278
vn -0.4857 -0.2678 -0.8321
vn -0.6924 -0.1310 -0.7095
vn -0.7964 -0.2094 0.5674
vn 0.7437 -0.2990 0.5979
vn -0.7102 -0.1325 0.6915
vn -0.7990 0.1014 0.5928
vn 0.7475 0.1114 0.6549
vn -0.3924 -0.0000 -0.9198
vn -0.0016 0.9419 0.3359
vn 0.7883 0.1269 -0.6020
vn -0.4974 0.0082 0.8675
vn -0.7797 -0.0186 0.6259
vn 0.0018 -0.9220 0.3873
vn 0.9077 0.0077 -0.4194
vn 0.9849 0.0023 -0.1734
vn -0.7917 -0.0184 0.6107
vn -0.1191 0.0464 0.9918
vn 0.0016 0.9421 -0.3354
vn -0.7797 -0.0186 -0.6259
vn 0.0018 -0.9220 -0.3873
vn 0.9110 0.0037 0.4125
vn 0.9849 0.0023 0.1734
vn -0.7822 -0.0084 -0.6230
vn 0.0103 -0.9999 -0.0110
vn 0.0020 -0.9999 -0.0104
vn 0.0458 -0.9989 -0.0030
vn 0.0533 -0.9986 0.0001
vn 0.0028 -0.9999 0.0102
usemtl Material.003
s 1
f 5/1/1 6/2/1 1/3/1
f 8/4/2 52/5/2 7/6/2
f 51/7/3 9/8/3 50/9/3
f 9/8/4 12/10/4 11/11/4
f 12/12/5 13/13/5 11/14/5
f 14/15/6 15/16/6 13/17/6
f 15/16/7 18/18/7 17/19/7
f 18/18/8 19/20/8 17/19/8
f 20/21/9 21/22/9 19/23/9
f 22/24/10 20/21/10 23/25/10
f 22/24/11 7/6/11 21/22/11
f 17/19/12 30/26/12 29/27/12
f 20/28/13 18/18/13 23/29/13
f 18/18/14 54/30/15 23/29/16
f 16/31/17 14/15/17 54/30/17
f 14/32/18 12/12/18 54/33/18
f 12/10/19 10/34/19 54/35/19
f 53/36/20 8/4/20 55/37/20
f 51/7/21 54/35/22 10/34/23
f 22/24/24 55/37/25 8/4/26
f 55/38/27 23/39/27 54/40/27
f 29/41/28 59/42/29 28/43/30
f 17/19/31 28/44/32 15/16/33
f 13/13/34 28/45/35 27/46/36
f 11/14/37 27/46/37 26/47/37
f 11/14/38 25/48/39 9/49/40
f 7/6/41 57/50/42 24/51/43
f 50/9/44 25/52/45 56/53/46
f 21/22/47 24/51/47 31/54/47
f 21/22/48 30/55/48 19/23/48
f 70/56/1 37/57/1 38/58/1
f 25/59/49 34/60/50 60/61/51
f 57/62/52 32/63/53 24/64/54
f 30/65/55 36/66/55 29/41/55
f 35/67/56 45/68/57 27/69/58
f 57/70/59 40/71/60 41/72/61
f 30/73/62 38/74/63 37/75/64
f 28/43/30 35/67/65 27/69/66
f 56/76/67 60/61/68 61/77/69
f 24/64/70 38/74/70 31/78/70
f 61/79/71 40/80/72 56/81/73
f 62/82/74 42/83/75 61/84/76
f 62/85/77 41/86/78 43/87/79
f 42/88/80 43/89/80 33/90/80
f 41/91/81 33/92/82 43/93/83
f 41/94/84 40/95/84 39/96/84
f 40/97/85 33/98/86 39/99/87
f 44/100/88 49/101/88 46/102/88
f 35/103/89 46/104/89 47/105/89
f 34/60/90 44/106/91 46/107/92
f 27/108/93 44/109/93 26/110/93
f 44/111/94 45/112/94 48/113/94
f 45/114/95 49/115/95 48/116/95
f 47/117/96 46/118/96 49/119/96
f 52/120/97 51/7/97 50/9/97
f 50/9/98 57/121/98 52/120/98
f 53/122/99 55/123/99 51/7/99
f 61/77/100 57/124/100 56/76/100
f 30/125/101 64/126/102 29/127/103
f 64/128/104 36/129/105 29/130/106
f 66/131/107 37/57/108 36/132/109
f 37/75/110 65/133/111 30/73/112
f 66/134/113 58/135/113 67/136/113
f 58/137/114 65/138/115 67/139/116
f 65/140/117 63/141/117 64/142/117
f 64/143/118 58/144/119 66/145/120
f 4/146/121 71/147/121 73/148/121
f 69/149/122 60/150/123 34/151/124
f 3/152/125 70/153/125 71/154/125
f 2/155/126 72/156/126 70/157/126
f 72/156/127 6/158/127 68/159/127
f 5/160/128 73/148/128 69/161/128
f 6/162/129 69/163/129 68/164/129
f 1/3/1 2/165/1 5/1/1
f 2/165/1 3/166/1 5/1/1
f 3/166/1 4/167/1 5/1/1
f 8/4/2 53/36/2 52/5/2
f 51/7/3 10/34/3 9/8/3
f 9/8/4 10/34/4 12/10/4
f 12/12/5 14/32/5 13/13/5
f 14/15/6 16/31/6 15/16/6
f 15/16/7 16/31/7 18/18/7
f 18/18/8 20/28/8 19/20/8
f 20/21/9 22/24/9 21/22/9
f 22/24/11 8/4/11 7/6/11
f 17/19/12 19/20/12 30/26/12
f 18/18/14 16/31/130 54/30/15
f 51/7/21 55/123/131 54/35/22
f 22/24/24 23/25/132 55/37/25
f 29/41/28 36/66/133 59/42/29
f 17/19/31 29/27/134 28/44/32
f 13/13/34 15/168/135 28/45/35
f 11/14/37 13/13/37 27/46/37
f 11/14/38 26/47/136 25/48/39
f 7/6/41 52/5/137 57/50/42
f 50/9/44 9/8/138 25/52/45
f 21/22/47 7/6/47 24/51/47
f 21/22/48 31/54/48 30/55/48
f 32/169/1 62/82/1 71/170/1
f 62/82/1 61/84/1 73/171/1
f 73/171/1 71/170/1 62/82/1
f 70/56/1 72/172/1 37/57/1
f 72/172/1 36/132/1 37/57/1
f 32/169/1 71/170/1 38/58/1
f 71/170/1 70/56/1 38/58/1
f 25/59/49 26/173/139 34/60/50
f 57/62/52 62/85/140 32/63/53
f 30/65/55 37/174/55 36/66/55
f 35/67/56 47/175/141 45/68/57
f 57/70/59 56/176/142 40/71/60
f 30/73/62 31/78/143 38/74/63
f 28/43/30 59/42/29 35/67/65
f 56/76/67 25/59/144 60/61/68
f 24/64/70 32/63/70 38/74/70
f 61/79/71 42/177/145 40/80/72
f 62/82/74 43/178/146 42/83/75
f 62/85/77 57/62/147 41/86/78
f 41/91/81 39/179/148 33/92/82
f 40/97/85 42/180/149 33/98/86
f 44/100/88 48/181/88 49/101/88
f 35/103/89 34/182/89 46/104/89
f 34/60/90 26/173/150 44/106/91
f 27/108/93 45/183/93 44/109/93
f 45/114/95 47/184/95 49/115/95
f 52/120/97 53/122/97 51/7/97
f 50/9/98 56/53/98 57/121/98
f 61/77/100 62/185/100 57/124/100
f 30/125/101 65/186/151 64/126/102
f 64/128/104 66/187/152 36/129/105
f 66/131/107 67/188/153 37/57/108
f 37/75/110 67/189/154 65/133/111
f 58/137/114 63/190/155 65/138/115
f 64/143/118 63/191/156 58/144/119
f 4/146/121 3/192/121 71/147/121
f 59/193/157 36/132/1 72/172/158
f 59/193/157 72/172/158 68/194/159
f 34/151/124 35/195/160 69/149/122
f 35/195/160 59/193/157 68/194/159
f 73/171/161 61/84/1 60/150/123
f 35/195/160 68/194/159 69/149/122
f 69/149/122 73/171/161 60/150/123
f 3/152/125 2/196/125 70/153/125
f 2/155/126 1/197/126 72/156/126
f 72/156/127 1/197/127 6/158/127
f 5/160/128 4/146/128 73/148/128
f 6/162/129 5/198/129 69/163/129
